# xmcd
#
# Track frame offsets:
#	150
#	25176
#	55649
#	77728
#	96840
#	119101
#	138297
#	163880
#	187882
#	199032
#	225117
#	250652
#	268489
#	287775
#
# Disc length: 3973 seconds
#
# Revision: 20
# Processed by: cddbd v1.5.2PL0 Copyright (c) Steve Scherf et al.
# Submitted via: Jack! The Knife 20 Magnifico
#
DISCID=bf0f830e
DTITLE=Yngwie Malmsteen - War To End All Wars
DYEAR=2000
DGENRE=Metal
TTITLE0=Prophet Of Doom
TTITLE1=Crucify
TTITLE2=Bad Reputation
TTITLE3=Catch 22
TTITLE4=Masquerade
TTITLE5=Molto Arpeggiosa
TTITLE6=Miracle Of Life
TTITLE7=The Wizard
TTITLE8=Preludium
TTITLE9=Wild One
TTITLE10=Tarot
TTITLE11=Instrumental Institution
TTITLE12=War To End All Wars
TTITLE13=Black Sheep Of The Family
EXTD=Yngwie Malmsteen
EXTT0=Yngwie Malmsteen
EXTT1=Yngwie Malmsteen
EXTT2=Yngwie Malmsteen
EXTT3=Yngwie Malmsteen
EXTT4=Yngwie Malmsteen
EXTT5=Yngwie Malmsteen
EXTT6=Yngwie Malmsteen
EXTT7=Yngwie Malmsteen
EXTT8=Yngwie Malmsteen
EXTT9=Yngwie Malmsteen
EXTT10=Yngwie Malmsteen
EXTT11=Yngwie Malmsteen
EXTT12=Yngwie Malmsteen
EXTT13=Yngwie Malmsteen
PLAYORDER=
